# xmcd
# 
# Track frame offsets:
#     150
#     12641
#     23419
#     33053
#     46831
#     54178
#     74567
#     86660
#     101912
#     115578
#     125014
#     130971
#     147979
#     171282
# 
# Disc length: 2404
# 
# Revision: 0
# Processed by: cddbd v1.5.2PL0 Copyright (c) Steve Scherf et al.
# Submitted via: fre:ac v1.0.17
# 
DISCID=bc09620e
DTITLE=Bob and Dave - Bob and Dave's Country Show
DYEAR=2005
DGENRE=Country
TTITLE0=How Are You My Name Is Evanoux
TTITLE1=Willie Nelson for President
TTITLE2=Geography Geography
TTITLE3=I Make You Hot
TTITLE4=One Hell of an Ox
TTITLE5=It Aint Country Music 'Til You Add th
TTITLE6=Dave's Mine
TTITLE7=Live When You Say I Do
TTITLE8=L.A. Hunk
TTITLE9=Second Base
TTITLE10=All My Cattle for You
TTITLE11=Not the Queen of Oslo
TTITLE12=Blue Eyed Seventeen
TTITLE13=Xtra
EXTD=
EXTT0=
EXTT1=
EXTT2=
EXTT3=
EXTT4=
EXTT5=
EXTT6=
EXTT7=
EXTT8=
EXTT9=
EXTT10=
EXTT11=
EXTT12=
EXTT13=
PLAYORDER=
